<mxfile host="app.diagrams.net" modified="2023-10-14T21:56:39.752Z" agent="Mozilla/5.0 (Windows NT 10.0; Win64; x64) AppleWebKit/537.36 (KHTML, like Gecko) Chrome/118.0.0.0 Safari/537.36" etag="1guiDoZhGt4gkLYYWtYS" version="22.0.4" type="github">
  <diagram name="Page-1" id="YVCHDtTJ3HeiU3hXeIPN">
    <mxGraphModel dx="1268" dy="838" grid="1" gridSize="10" guides="1" tooltips="1" connect="1" arrows="1" fold="1" page="1" pageScale="1" pageWidth="850" pageHeight="1100" math="0" shadow="0">
      <root>
        <mxCell id="0" />
        <mxCell id="1" parent="0" />
        <mxCell id="--JE3dBzEUqlvVUsnqfo-1" value="&amp;lt;&amp;lt;device&amp;gt;&amp;gt; &lt;b&gt;Azure Application Server&lt;/b&gt;" style="verticalAlign=top;align=left;spacingTop=8;spacingLeft=2;spacingRight=12;shape=cube;size=10;direction=south;fontStyle=4;html=1;whiteSpace=wrap;" vertex="1" parent="1">
          <mxGeometry x="40" y="40" width="580" height="610" as="geometry" />
        </mxCell>
        <mxCell id="--JE3dBzEUqlvVUsnqfo-20" value="" style="group" vertex="1" connectable="0" parent="1">
          <mxGeometry x="80" y="130" width="260" height="120" as="geometry" />
        </mxCell>
        <mxCell id="--JE3dBzEUqlvVUsnqfo-7" value="&amp;lt;&amp;lt;execution environment&amp;gt;&amp;gt; &lt;b&gt;Waitlist&lt;/b&gt;" style="verticalAlign=top;align=left;spacingTop=8;spacingLeft=2;spacingRight=12;shape=cube;size=10;direction=south;fontStyle=4;html=1;whiteSpace=wrap;" vertex="1" parent="--JE3dBzEUqlvVUsnqfo-20">
          <mxGeometry width="260" height="120" as="geometry" />
        </mxCell>
        <mxCell id="--JE3dBzEUqlvVUsnqfo-14" value="&amp;lt;&amp;lt;artifact&amp;gt;&amp;gt;&lt;br&gt;docker image" style="html=1;whiteSpace=wrap;" vertex="1" parent="--JE3dBzEUqlvVUsnqfo-20">
          <mxGeometry x="55" y="40" width="110" height="50" as="geometry" />
        </mxCell>
        <mxCell id="--JE3dBzEUqlvVUsnqfo-21" value="" style="group" vertex="1" connectable="0" parent="1">
          <mxGeometry x="70" y="440" width="260" height="120" as="geometry" />
        </mxCell>
        <mxCell id="--JE3dBzEUqlvVUsnqfo-6" value="&amp;lt;&amp;lt;execution environment&amp;gt;&amp;gt; &lt;b&gt;Triage&lt;/b&gt;" style="verticalAlign=top;align=left;spacingTop=8;spacingLeft=2;spacingRight=12;shape=cube;size=10;direction=south;fontStyle=4;html=1;whiteSpace=wrap;" vertex="1" parent="--JE3dBzEUqlvVUsnqfo-21">
          <mxGeometry width="260" height="120" as="geometry" />
        </mxCell>
        <mxCell id="--JE3dBzEUqlvVUsnqfo-12" value="&amp;lt;&amp;lt;artifact&amp;gt;&amp;gt;&lt;br&gt;docker image" style="html=1;whiteSpace=wrap;" vertex="1" parent="--JE3dBzEUqlvVUsnqfo-21">
          <mxGeometry x="50" y="50" width="110" height="50" as="geometry" />
        </mxCell>
        <mxCell id="--JE3dBzEUqlvVUsnqfo-22" value="" style="group" vertex="1" connectable="0" parent="1">
          <mxGeometry x="330" y="285" width="260" height="120" as="geometry" />
        </mxCell>
        <mxCell id="--JE3dBzEUqlvVUsnqfo-3" value="&amp;lt;&amp;lt;execution environment&amp;gt;&amp;gt; &lt;b&gt;Auth&lt;/b&gt;" style="verticalAlign=top;align=left;spacingTop=8;spacingLeft=2;spacingRight=12;shape=cube;size=10;direction=south;fontStyle=4;html=1;whiteSpace=wrap;" vertex="1" parent="--JE3dBzEUqlvVUsnqfo-22">
          <mxGeometry width="260" height="120" as="geometry" />
        </mxCell>
        <mxCell id="--JE3dBzEUqlvVUsnqfo-9" value="&amp;lt;&amp;lt;artifact&amp;gt;&amp;gt;&lt;br&gt;docker image" style="html=1;whiteSpace=wrap;" vertex="1" parent="--JE3dBzEUqlvVUsnqfo-22">
          <mxGeometry x="40" y="50" width="110" height="50" as="geometry" />
        </mxCell>
        <mxCell id="--JE3dBzEUqlvVUsnqfo-26" style="rounded=0;orthogonalLoop=1;jettySize=auto;html=1;entryX=0;entryY=0;entryDx=0;entryDy=125;entryPerimeter=0;endArrow=none;endFill=0;exitX=0;exitY=0;exitDx=120;exitDy=135;exitPerimeter=0;" edge="1" parent="1" source="--JE3dBzEUqlvVUsnqfo-7" target="--JE3dBzEUqlvVUsnqfo-6">
          <mxGeometry relative="1" as="geometry" />
        </mxCell>
        <mxCell id="--JE3dBzEUqlvVUsnqfo-29" value="&amp;lt;&amp;lt;protocol&amp;gt;&amp;gt; &lt;b&gt;HTTPS&lt;/b&gt;" style="edgeLabel;html=1;align=center;verticalAlign=middle;resizable=0;points=[];" vertex="1" connectable="0" parent="--JE3dBzEUqlvVUsnqfo-26">
          <mxGeometry x="-0.025" y="-1" relative="1" as="geometry">
            <mxPoint as="offset" />
          </mxGeometry>
        </mxCell>
        <mxCell id="--JE3dBzEUqlvVUsnqfo-27" style="rounded=0;orthogonalLoop=1;jettySize=auto;html=1;entryX=0;entryY=0;entryDx=0;entryDy=125;entryPerimeter=0;endArrow=none;endFill=0;" edge="1" parent="1" source="--JE3dBzEUqlvVUsnqfo-7" target="--JE3dBzEUqlvVUsnqfo-3">
          <mxGeometry relative="1" as="geometry" />
        </mxCell>
        <mxCell id="--JE3dBzEUqlvVUsnqfo-30" value="&amp;lt;&amp;lt;protocol&amp;gt;&amp;gt;&amp;nbsp;&lt;br&gt;&lt;b style=&quot;border-color: var(--border-color);&quot;&gt;HTTPS&lt;/b&gt;" style="edgeLabel;html=1;align=center;verticalAlign=middle;resizable=0;points=[];" vertex="1" connectable="0" parent="--JE3dBzEUqlvVUsnqfo-27">
          <mxGeometry x="-0.3115" y="1" relative="1" as="geometry">
            <mxPoint as="offset" />
          </mxGeometry>
        </mxCell>
        <mxCell id="--JE3dBzEUqlvVUsnqfo-28" style="rounded=0;orthogonalLoop=1;jettySize=auto;html=1;entryX=0;entryY=0;entryDx=55;entryDy=0;entryPerimeter=0;endArrow=none;endFill=0;exitX=0;exitY=0;exitDx=120;exitDy=135;exitPerimeter=0;" edge="1" parent="1" source="--JE3dBzEUqlvVUsnqfo-3" target="--JE3dBzEUqlvVUsnqfo-6">
          <mxGeometry relative="1" as="geometry" />
        </mxCell>
        <mxCell id="--JE3dBzEUqlvVUsnqfo-31" value="&amp;lt;&amp;lt;protocol&amp;gt;&amp;gt;&lt;br&gt;&lt;b style=&quot;border-color: var(--border-color);&quot;&gt;HTTPS&lt;/b&gt;" style="edgeLabel;html=1;align=center;verticalAlign=middle;resizable=0;points=[];" vertex="1" connectable="0" parent="--JE3dBzEUqlvVUsnqfo-28">
          <mxGeometry x="0.042" y="-1" relative="1" as="geometry">
            <mxPoint as="offset" />
          </mxGeometry>
        </mxCell>
        <mxCell id="--JE3dBzEUqlvVUsnqfo-32" style="edgeStyle=orthogonalEdgeStyle;rounded=0;orthogonalLoop=1;jettySize=auto;html=1;entryX=0;entryY=0;entryDx=205;entryDy=310;entryPerimeter=0;endArrow=none;endFill=0;" edge="1" parent="1" source="--JE3dBzEUqlvVUsnqfo-1" target="--JE3dBzEUqlvVUsnqfo-15">
          <mxGeometry relative="1" as="geometry" />
        </mxCell>
        <mxCell id="--JE3dBzEUqlvVUsnqfo-34" value="&amp;lt;&amp;lt;protocol&amp;gt;&amp;gt;&amp;nbsp;&lt;br&gt;&lt;b style=&quot;border-color: var(--border-color);&quot;&gt;HTTPS&lt;/b&gt;" style="edgeLabel;html=1;align=center;verticalAlign=middle;resizable=0;points=[];" vertex="1" connectable="0" parent="--JE3dBzEUqlvVUsnqfo-32">
          <mxGeometry x="-0.1125" y="-5" relative="1" as="geometry">
            <mxPoint x="-1" as="offset" />
          </mxGeometry>
        </mxCell>
        <mxCell id="--JE3dBzEUqlvVUsnqfo-33" value="" style="group" vertex="1" connectable="0" parent="1">
          <mxGeometry x="770" y="145" width="310" height="400" as="geometry" />
        </mxCell>
        <mxCell id="--JE3dBzEUqlvVUsnqfo-15" value="&amp;lt;&amp;lt;device&amp;gt;&amp;gt; &lt;b&gt;Azure Database Server&lt;/b&gt;" style="verticalAlign=top;align=left;spacingTop=8;spacingLeft=2;spacingRight=12;shape=cube;size=10;direction=south;fontStyle=4;html=1;whiteSpace=wrap;" vertex="1" parent="--JE3dBzEUqlvVUsnqfo-33">
          <mxGeometry y="-5" width="310" height="400" as="geometry" />
        </mxCell>
        <mxCell id="--JE3dBzEUqlvVUsnqfo-25" value="" style="group" vertex="1" connectable="0" parent="--JE3dBzEUqlvVUsnqfo-33">
          <mxGeometry x="30" y="70" width="240" height="260" as="geometry" />
        </mxCell>
        <mxCell id="--JE3dBzEUqlvVUsnqfo-16" value="&amp;lt;&amp;lt;database system&amp;gt;&amp;gt; &lt;b&gt;MS SQL Server&lt;/b&gt;" style="verticalAlign=top;align=left;spacingTop=8;spacingLeft=2;spacingRight=12;shape=cube;size=10;direction=south;fontStyle=4;html=1;whiteSpace=wrap;" vertex="1" parent="--JE3dBzEUqlvVUsnqfo-25">
          <mxGeometry width="240" height="260" as="geometry" />
        </mxCell>
        <mxCell id="--JE3dBzEUqlvVUsnqfo-17" value="&amp;lt;&amp;lt;schema&amp;gt;&amp;gt;&lt;br&gt;&lt;b&gt;Account&lt;/b&gt;" style="html=1;whiteSpace=wrap;" vertex="1" parent="--JE3dBzEUqlvVUsnqfo-25">
          <mxGeometry x="60" y="50" width="110" height="50" as="geometry" />
        </mxCell>
        <mxCell id="--JE3dBzEUqlvVUsnqfo-18" value="&amp;lt;&amp;lt;schema&amp;gt;&amp;gt;&lt;br&gt;&lt;b&gt;Patient&lt;/b&gt;" style="html=1;whiteSpace=wrap;" vertex="1" parent="--JE3dBzEUqlvVUsnqfo-25">
          <mxGeometry x="60" y="105" width="110" height="50" as="geometry" />
        </mxCell>
        <mxCell id="--JE3dBzEUqlvVUsnqfo-19" value="&amp;lt;&amp;lt;schema&amp;gt;&amp;gt;&lt;br&gt;&lt;b&gt;Waitlist&lt;/b&gt;" style="html=1;whiteSpace=wrap;" vertex="1" parent="--JE3dBzEUqlvVUsnqfo-25">
          <mxGeometry x="60" y="160" width="110" height="50" as="geometry" />
        </mxCell>
      </root>
    </mxGraphModel>
  </diagram>
</mxfile>
